# xmcd
#
# Track frame offsets:
#	150
#	9202
#	23180
#	35500
#	45372
#	61117
#	74610
#	83122
#	96365
#	110737
#	130467
#
# Disc length: 1948 seconds
#
# Revision: 1
# Processed by: cddbd v1.5.1PL0 Copyright (c) Steve Scherf et al.
# Submitted via: audiograbber 1.83.01
#
DISCID=8d079a0b
DTITLE=The Double U and Glands of External Secretion - S/T
DYEAR=1900
DGENRE=Viking Noise Gloop Pop
TTITLE0=Glands of External Secretion - March to Valhalla
TTITLE1=Glands of External Secretion - lIhG
TTITLE2=Glands of External Secretion - The Sick Doll (Peter Tschaikowsky)
TTITLE3=Glands of External Secretion - yowgüll
TTITLE4=Glands of External Secretion - Cuisine of Northern India
TTITLE5=Glands of External Secretion - Emperor Jones
TTITLE6=Glands of External Secretion - Mystic Rectangle
TTITLE7=Glands of External Secretion - Green Light Go
TTITLE8=Glands of External Secretion - Absurd Fjord (redux)
TTITLE9=Glands of External Secretion - Bow Legged Horse
TTITLE10=Glands of External Secretion - Lonely Woman (Ornette Coleman)
EXTD=
EXTT0=
EXTT1=
EXTT2=
EXTT3=
EXTT4=
EXTT5=
EXTT6=
EXTT7=
EXTT8=
EXTT9=
EXTT10=
PLAYORDER=
